# xmcd
#
# Track frame offsets: 
#        150
#        18893
#        30055
#        45899
#        60306
#        75626
#        89479
#        108112
#        130965
#        144509
#        156645
#        169806
#        187485
#        201793
#        212358
#
# Disc length: 3124 seconds
#
# Revision: 2
# Processed by: cddbd v1.5.2PL0 Copyright (c) Steve Scherf et al.
# Submitted via: ExactAudioCopy v0.99pb5
#
DISCID=be0c320f
DTITLE=Александр Розенбаум - Я Люблю Возвращаться В Свой Город
DYEAR=2003
DGENRE=Chanson
TTITLE0=Бронзовые Львы
TTITLE1=Возвращение В Город
TTITLE2=Белая Ночь
TTITLE3=Предрассветный Вальс
TTITLE4=Вальс На Лебяжей Канавке
TTITLE5=Прогулка По Невскому
TTITLE6=Лиговка
TTITLE7=На Улице Гороховой
TTITLE8=На Улице Марата
TTITLE9=Налетела Грусть
TTITLE10=На Дороге Жизни
TTITLE11=Не Хочу Стареть
TTITLE12=По Снегу Летящему С Неба
TTITLE13=Санька Котов
TTITLE14=Ты Не Санкт..., Петербург
EXTD=
EXTT0=
EXTT1=
EXTT2=
EXTT3=
EXTT4=
EXTT5=
EXTT6=
EXTT7=
EXTT8=
EXTT9=
EXTT10=
EXTT11=
EXTT12=
EXTT13=
EXTT14=
PLAYORDER=
